<?xml version="1.0" standalone="no"?>
<!DOCTYPE svg PUBLIC "-//W3C//DTD SVG 20010904//EN"
 "http://www.w3.org/TR/2001/REC-SVG-20010904/DTD/svg10.dtd">
<svg version="1.0" xmlns="http://www.w3.org/2000/svg"
 width="256.000000pt" height="256.000000pt" viewBox="0 0 256.000000 256.000000"
 preserveAspectRatio="xMidYMid meet">
<metadata>
Created by potrace 1.14, written by Peter Selinger 2001-2017
</metadata>
<g transform="translate(0.000000,256.000000) scale(0.100000,-0.100000)"
fill="#000000" stroke="none">
<path d="M658 1568 c-2 -84 -2 -255 0 -380 l3 -228 79 0 80 0 0 81 0 81 51 59
c28 33 54 59 59 59 4 0 48 -63 99 -140 l92 -140 100 0 c78 0 98 3 93 13 -16
26 -207 314 -237 356 -37 53 -45 37 116 235 64 80 117 148 117 151 0 3 -45 5
-99 5 l-100 0 -63 -78 c-35 -43 -99 -122 -143 -175 l-80 -96 -3 175 -2 174
-80 0 -79 0 -3 -152z"/>
<path d="M1400 1340 l0 -380 80 0 80 0 0 380 0 380 -80 0 -80 0 0 -380z"/>
<path d="M1600 1643 l0 -80 78 -6 c44 -2 93 -12 110 -21 76 -39 116 -147 93
-249 -25 -114 -79 -158 -202 -165 l-79 -5 0 -79 0 -80 98 4 c86 3 107 8 164
36 80 39 128 90 159 168 19 50 23 78 24 179 0 110 -2 125 -27 177 -57 123
-163 187 -325 196 l-93 5 0 -80z"/>
</g>
</svg>
